<svg xmlns="http://www.w3.org/2000/svg" width="160" height="160" viewBox="0 0 160 160">
  <defs>
    <linearGradient id="background" x2="1" y2="1">
      <stop stop-color="#818cf8"/>
      <stop offset="1" stop-color="#bae6fd"/>
    </linearGradient>
    <linearGradient id="jacket" x2="1" y2="1">
      <stop stop-color="#4f46a0"/>
      <stop offset="1" stop-color="#373657"/>
    </linearGradient>
  </defs>
  <circle cx="80" cy="80" r="80" fill="url(#background)"/>
  <circle cx="124" cy="30" r="24" fill="#edf2ff" opacity=".2"/>
  <path d="M32 154v-39c0-30 3-88 47-88 43 0 48 39 48 81v46" fill="#24263f"/>
  <path d="M22 160c3-30 24-48 58-48s56 18 59 48" fill="url(#jacket)"/>
  <path d="M65 103h30v23l-15 14-15-14" fill="#efbca8"/>
  <path d="m64 117 16 17-13 14-13-28m42-3-16 17 13 14 13-28" fill="#edf2ff"/>
  <path d="M47 65c0-23 13-34 34-34 22 0 34 14 34 36v16c0 25-15 39-35 39S47 106 47 82" fill="#f8d2be"/>
  <path d="M43 68c-1-28 15-45 38-45 26 0 40 17 37 49-18-4-32-14-39-26-7 13-21 21-36 22" fill="#30314e"/>
  <path d="M59 77c4-3 9-3 13-1m18 0c4-2 9-2 13 1" fill="none" stroke="#5c414b" stroke-width="3" stroke-linecap="round"/>
  <ellipse cx="65" cy="85" rx="3" ry="4" fill="#34344c"/>
  <ellipse cx="96" cy="85" rx="3" ry="4" fill="#34344c"/>
  <ellipse cx="58" cy="94" rx="7" ry="4" fill="#ed9ba4" opacity=".55"/>
  <ellipse cx="103" cy="94" rx="7" ry="4" fill="#ed9ba4" opacity=".55"/>
  <path d="M71 100q9 10 18 0" fill="#fff" stroke="#b76577" stroke-width="2" stroke-linecap="round"/>
  <path d="M41 80V68c0-24 17-43 39-43s40 19 40 43v12" fill="none" stroke="#c9ecff" stroke-width="7" stroke-linecap="round"/>
  <rect x="34" y="71" width="15" height="28" rx="7" fill="#edf2ff"/>
  <rect x="112" y="71" width="15" height="28" rx="7" fill="#edf2ff"/>
  <path d="M121 96c0 13-14 19-29 19" fill="none" stroke="#c9ecff" stroke-width="5" stroke-linecap="round"/>
  <rect x="83" y="110" width="15" height="9" rx="4.5" fill="#5555a3"/>
</svg>
